<?xml version="1.0" encoding="UTF-8" standalone="no"?>
<svg
   xmlns:dc="http://purl.org/dc/elements/1.1/"
   xmlns:cc="http://creativecommons.org/ns#"
   xmlns:rdf="http://www.w3.org/1999/02/22-rdf-syntax-ns#"
   xmlns:svg="http://www.w3.org/2000/svg"
   xmlns="http://www.w3.org/2000/svg"
   xmlns:sodipodi="http://sodipodi.sourceforge.net/DTD/sodipodi-0.dtd"
   xmlns:inkscape="http://www.inkscape.org/namespaces/inkscape"
   width="1920"
   height="1080"
   viewBox="0 0 507.99999 285.75001"
   version="1.1"
   id="svg846"
   inkscape:version="1.0.1 (3bc2e813f5, 2020-09-07)"
   sodipodi:docname="screen-grid.svg">
  <defs
     id="defs840" />
  <sodipodi:namedview
     id="base"
     pagecolor="#ffffff"
     bordercolor="#666666"
     borderopacity="1.0"
     inkscape:pageopacity="0.0"
     inkscape:pageshadow="2"
     inkscape:zoom="0.2480636"
     inkscape:cx="519.6648"
     inkscape:cy="-435.97784"
     inkscape:document-units="px"
     inkscape:current-layer="layer1"
     inkscape:document-rotation="0"
     showgrid="false"
     units="px"
     inkscape:window-width="1920"
     inkscape:window-height="1022"
     inkscape:window-x="0"
     inkscape:window-y="30"
     inkscape:window-maximized="1" />
  <metadata
     id="metadata843">
    <rdf:RDF>
      <cc:Work
         rdf:about="">
        <dc:format>image/svg+xml</dc:format>
        <dc:type
           rdf:resource="http://purl.org/dc/dcmitype/StillImage" />
        <dc:title></dc:title>
      </cc:Work>
    </rdf:RDF>
  </metadata>
  <g
     inkscape:label="Layer 1"
     inkscape:groupmode="layer"
     id="layer1">
    <path
       id="path6316"
       style="color:#000000;font-style:normal;font-variant:normal;font-weight:normal;font-stretch:normal;font-size:medium;line-height:normal;font-family:sans-serif;font-variant-ligatures:normal;font-variant-position:normal;font-variant-caps:normal;font-variant-numeric:normal;font-variant-alternates:normal;font-variant-east-asian:normal;font-feature-settings:normal;font-variation-settings:normal;text-indent:0;text-align:start;text-decoration:none;text-decoration-line:none;text-decoration-style:solid;text-decoration-color:#000000;letter-spacing:normal;word-spacing:normal;text-transform:none;writing-mode:lr-tb;direction:ltr;text-orientation:mixed;dominant-baseline:auto;baseline-shift:baseline;text-anchor:start;white-space:normal;shape-padding:0;shape-margin:0;inline-size:0;clip-rule:nonzero;display:inline;overflow:visible;visibility:visible;opacity:1;isolation:auto;mix-blend-mode:normal;color-interpolation:sRGB;color-interpolation-filters:linearRGB;solid-color:#000000;solid-opacity:1;vector-effect:none;fill:#4b5bab;fill-opacity:1;fill-rule:nonzero;stroke:none;stroke-width:3.99999;stroke-linecap:round;stroke-linejoin:miter;stroke-miterlimit:4;stroke-dasharray:none;stroke-dashoffset:0;stroke-opacity:1;color-rendering:auto;image-rendering:auto;shape-rendering:auto;text-rendering:auto;enable-background:accumulate;stop-color:#000000;stop-opacity:1"
       d="M 0,0 V 2 60 62 64.001953 120 122 124.00195 180 182 184.00195 240 242 244.00195 300 302 304.00195 360 362 364.00195 420 v 2 2 56 2 2 56 2 2 56 2 2 56 2 2 56 2 2 56 2 2 56 2 2 56 2 2 56 2 2 56 2 2 60 h 64.001953 59.999997 60 60 60 60 H 424 h 60 60 60 60 60 60 60 60 60 60 60 60 60 60 60 60 60 60 60 60 60 60 60 56 4 60 v -60 -4 V 960 900 840 780 720 660 600 540 480 420 360 300 240 180 120 60 0 h -60 -60 -60 -60 -60 -60 -60 -60 -60 -60 -60 -60 -60 -60 -60 -60 -60 -60 -60 -60 -60 -60 -60 -60 -60 -59.99805 -60 -60 -60 -60 -59.999997 z M 4.0019531,4.0019531 H 60 V 60 H 4.0019531 Z m 59.9999999,0 H 120 V 60 H 64.001953 Z m 59.999997,0 H 180 V 60 h -55.99805 z m 60,0 H 240 V 60 h -55.99805 z m 60,0 H 300 V 60 h -55.99805 z m 60,0 H 360 V 60 h -55.99805 z m 60,0 H 420 V 60 h -55.99805 z m 59.99805,0 h 56 V 60 h -56 z m 60,0 h 56 V 60 h -56 z m 60,0 h 56 V 60 h -56 z m 60,0 h 56 V 60 h -56 z m 60,0 h 56 V 60 h -56 z m 60,0 h 56 V 60 h -56 z m 60,0 h 56 V 60 h -56 z m 60,0 h 56 V 60 h -56 z m 60,0 h 56 V 60 h -56 z m 60,0 h 56 V 60 h -56 z m 60,0 h 56 V 60 h -56 z m 60,0 h 56 V 60 h -56 z m 60,0 h 56 V 60 h -56 z m 60,0 h 56 V 60 h -56 z m 60,0 h 56 V 60 h -56 z m 60,0 h 56 V 60 h -56 z m 60,0 h 56 V 60 h -56 z m 60,0 h 56 V 60 h -56 z m 60,0 h 56 V 60 h -56 z m 60,0 h 56 V 60 h -56 z m 60,0 h 56 V 60 h -56 z m 60,0 h 56 V 60 h -56 z m 60,0 h 56 V 60 h -56 z m 60,0 h 56 V 60 h -56 z m 60,0 h 56 V 60 h -56 z M 4.0019531,64.001953 H 60 V 120 H 4.0019531 Z m 59.9999999,0 H 120 V 120 H 64.001953 Z m 59.999997,0 H 180 V 120 h -55.99805 z m 60,0 H 240 V 120 h -55.99805 z m 60,0 H 300 V 120 h -55.99805 z m 60,0 H 360 V 120 h -55.99805 z m 60,0 H 420 V 120 h -55.99805 z m 59.99805,0 h 56 V 120 h -56 z m 60,0 h 56 V 120 h -56 z m 60,0 h 56 V 120 h -56 z m 60,0 h 56 V 120 h -56 z m 60,0 h 56 V 120 h -56 z m 60,0 h 56 V 120 h -56 z m 60,0 h 56 V 120 h -56 z m 60,0 h 56 V 120 h -56 z m 60,0 h 56 V 120 h -56 z m 60,0 h 56 V 120 h -56 z m 60,0 h 56 V 120 h -56 z m 60,0 h 56 V 120 h -56 z m 60,0 h 56 V 120 h -56 z m 60,0 h 56 V 120 h -56 z m 60,0 h 56 V 120 h -56 z m 60,0 h 56 V 120 h -56 z m 60,0 h 56 V 120 h -56 z m 60,0 h 56 V 120 h -56 z m 60,0 h 56 V 120 h -56 z m 60,0 h 56 V 120 h -56 z m 60,0 h 56 V 120 h -56 z m 60,0 h 56 V 120 h -56 z m 60,0 h 56 V 120 h -56 z m 60,0 h 56 V 120 h -56 z m 60,0 h 56 V 120 h -56 z M 4.0019531,124.00195 H 60 V 180 H 4.0019531 Z m 59.9999999,0 H 120 V 180 H 64.001953 Z m 59.999997,0 H 180 V 180 h -55.99805 z m 60,0 H 240 V 180 h -55.99805 z m 60,0 H 300 V 180 h -55.99805 z m 60,0 H 360 V 180 h -55.99805 z m 60,0 H 420 V 180 h -55.99805 z m 59.99805,0 h 56 V 180 h -56 z m 60,0 h 56 V 180 h -56 z m 60,0 h 56 V 180 h -56 z m 60,0 h 56 V 180 h -56 z m 60,0 h 56 V 180 h -56 z m 60,0 h 56 V 180 h -56 z m 60,0 h 56 V 180 h -56 z m 60,0 h 56 V 180 h -56 z m 60,0 h 56 V 180 h -56 z m 60,0 h 56 V 180 h -56 z m 60,0 h 56 V 180 h -56 z m 60,0 h 56 V 180 h -56 z m 60,0 h 56 V 180 h -56 z m 60,0 h 56 V 180 h -56 z m 60,0 h 56 V 180 h -56 z m 60,0 h 56 V 180 h -56 z m 60,0 h 56 V 180 h -56 z m 60,0 h 56 V 180 h -56 z m 60,0 h 56 V 180 h -56 z m 60,0 h 56 V 180 h -56 z m 60,0 h 56 V 180 h -56 z m 60,0 h 56 V 180 h -56 z m 60,0 h 56 V 180 h -56 z m 60,0 h 56 V 180 h -56 z m 60,0 h 56 V 180 h -56 z m -1859.9980469,60 H 60 V 240 H 4.0019531 Z m 59.9999999,0 H 120 V 240 H 64.001953 Z m 59.999997,0 H 180 V 240 h -55.99805 z m 60,0 H 240 V 240 h -55.99805 z m 60,0 H 300 V 240 h -55.99805 z m 60,0 H 360 V 240 h -55.99805 z m 60,0 H 420 V 240 h -55.99805 z m 59.99805,0 h 56 V 240 h -56 z m 60,0 h 56 V 240 h -56 z m 60,0 h 56 V 240 h -56 z m 60,0 h 56 V 240 h -56 z m 60,0 h 56 V 240 h -56 z m 60,0 h 56 V 240 h -56 z m 60,0 h 56 V 240 h -56 z m 60,0 h 56 V 240 h -56 z m 60,0 h 56 V 240 h -56 z m 60,0 h 56 V 240 h -56 z m 60,0 h 56 V 240 h -56 z m 60,0 h 56 V 240 h -56 z m 60,0 h 56 V 240 h -56 z m 60,0 h 56 V 240 h -56 z m 60,0 h 56 V 240 h -56 z m 60,0 h 56 V 240 h -56 z m 60,0 h 56 V 240 h -56 z m 60,0 h 56 V 240 h -56 z m 60,0 h 56 V 240 h -56 z m 60,0 h 56 V 240 h -56 z m 60,0 h 56 V 240 h -56 z m 60,0 h 56 V 240 h -56 z m 60,0 h 56 V 240 h -56 z m 60,0 h 56 V 240 h -56 z m 60,0 h 56 V 240 h -56 z m -1859.9980469,60 H 60 V 300 H 4.0019531 Z m 59.9999999,0 H 120 V 300 H 64.001953 Z m 59.999997,0 H 180 V 300 h -55.99805 z m 60,0 H 240 V 300 h -55.99805 z m 60,0 H 300 V 300 h -55.99805 z m 60,0 H 360 V 300 h -55.99805 z m 60,0 H 420 V 300 h -55.99805 z m 59.99805,0 h 56 V 300 h -56 z m 60,0 h 56 V 300 h -56 z m 60,0 h 56 V 300 h -56 z m 60,0 h 56 V 300 h -56 z m 60,0 h 56 V 300 h -56 z m 60,0 h 56 V 300 h -56 z m 60,0 h 56 V 300 h -56 z m 60,0 h 56 V 300 h -56 z m 60,0 h 56 V 300 h -56 z m 60,0 h 56 V 300 h -56 z m 60,0 h 56 V 300 h -56 z m 60,0 h 56 V 300 h -56 z m 60,0 h 56 V 300 h -56 z m 60,0 h 56 V 300 h -56 z m 60,0 h 56 V 300 h -56 z m 60,0 h 56 V 300 h -56 z m 60,0 h 56 V 300 h -56 z m 60,0 h 56 V 300 h -56 z m 60,0 h 56 V 300 h -56 z m 60,0 h 56 V 300 h -56 z m 60,0 h 56 V 300 h -56 z m 60,0 h 56 V 300 h -56 z m 60,0 h 56 V 300 h -56 z m 60,0 h 56 V 300 h -56 z m 60,0 h 56 V 300 h -56 z m -1859.9980469,60 H 60 V 360 H 4.0019531 Z m 59.9999999,0 H 120 V 360 H 64.001953 Z m 59.999997,0 H 180 V 360 h -55.99805 z m 60,0 H 240 V 360 h -55.99805 z m 60,0 H 300 V 360 h -55.99805 z m 60,0 H 360 V 360 h -55.99805 z m 60,0 H 420 V 360 h -55.99805 z m 59.99805,0 h 56 V 360 h -56 z m 60,0 h 56 V 360 h -56 z m 60,0 h 56 V 360 h -56 z m 60,0 h 56 V 360 h -56 z m 60,0 h 56 V 360 h -56 z m 60,0 h 56 V 360 h -56 z m 60,0 h 56 V 360 h -56 z m 60,0 h 56 V 360 h -56 z m 60,0 h 56 V 360 h -56 z m 60,0 h 56 V 360 h -56 z m 60,0 h 56 V 360 h -56 z m 60,0 h 56 V 360 h -56 z m 60,0 h 56 V 360 h -56 z m 60,0 h 56 V 360 h -56 z m 60,0 h 56 V 360 h -56 z m 60,0 h 56 V 360 h -56 z m 60,0 h 56 V 360 h -56 z m 60,0 h 56 V 360 h -56 z m 60,0 h 56 V 360 h -56 z m 60,0 h 56 V 360 h -56 z m 60,0 h 56 V 360 h -56 z m 60,0 h 56 V 360 h -56 z m 60,0 h 56 V 360 h -56 z m 60,0 h 56 V 360 h -56 z m 60,0 h 56 V 360 h -56 z m -1859.9980469,60 H 60 V 420 H 4.0019531 Z m 59.9999999,0 H 120 V 420 H 64.001953 Z m 59.999997,0 H 180 V 420 h -55.99805 z m 60,0 H 240 V 420 h -55.99805 z m 60,0 H 300 V 420 h -55.99805 z m 60,0 H 360 V 420 h -55.99805 z m 60,0 H 420 V 420 h -55.99805 z m 59.99805,0 h 56 V 420 h -56 z m 60,0 h 56 V 420 h -56 z m 60,0 h 56 V 420 h -56 z m 60,0 h 56 V 420 h -56 z m 60,0 h 56 V 420 h -56 z m 60,0 h 56 V 420 h -56 z m 60,0 h 56 V 420 h -56 z m 60,0 h 56 V 420 h -56 z m 60,0 h 56 V 420 h -56 z m 60,0 h 56 V 420 h -56 z m 60,0 h 56 V 420 h -56 z m 60,0 h 56 V 420 h -56 z m 60,0 h 56 V 420 h -56 z m 60,0 h 56 V 420 h -56 z m 60,0 h 56 V 420 h -56 z m 60,0 h 56 V 420 h -56 z m 60,0 h 56 V 420 h -56 z m 60,0 h 56 V 420 h -56 z m 60,0 h 56 V 420 h -56 z m 60,0 h 56 V 420 h -56 z m 60,0 h 56 V 420 h -56 z m 60,0 h 56 V 420 h -56 z m 60,0 h 56 V 420 h -56 z m 60,0 h 56 V 420 h -56 z m 60,0 h 56 V 420 h -56 z M 4.0019531,424 H 60 v 56 H 4.0019531 Z m 59.9999999,0 H 120 v 56 H 64.001953 Z m 59.999997,0 H 180 v 56 h -55.99805 z m 60,0 H 240 v 56 h -55.99805 z m 60,0 H 300 v 56 h -55.99805 z m 60,0 H 360 v 56 h -55.99805 z m 60,0 H 420 v 56 H 364.00195 Z M 424,424 h 56 v 56 h -56 z m 60,0 h 56 v 56 h -56 z m 60,0 h 56 v 56 h -56 z m 60,0 h 56 v 56 h -56 z m 60,0 h 56 v 56 h -56 z m 60,0 h 56 v 56 h -56 z m 60,0 h 56 v 56 h -56 z m 60,0 h 56 v 56 h -56 z m 60,0 h 56 v 56 h -56 z m 60,0 h 56 v 56 h -56 z m 60,0 h 56 v 56 h -56 z m 60,0 h 56 v 56 h -56 z m 60,0 h 56 v 56 h -56 z m 60,0 h 56 v 56 h -56 z m 60,0 h 56 v 56 h -56 z m 60,0 h 56 v 56 h -56 z m 60,0 h 56 v 56 h -56 z m 60,0 h 56 v 56 h -56 z m 60,0 h 56 v 56 h -56 z m 60,0 h 56 v 56 h -56 z m 60,0 h 56 v 56 h -56 z m 60,0 h 56 v 56 h -56 z m 60,0 h 56 v 56 h -56 z m 60,0 h 56 v 56 h -56 z m 60,0 h 56 v 56 h -56 z M 4.0019531,484 H 60 v 56 H 4.0019531 Z m 59.9999999,0 H 120 v 56 H 64.001953 Z m 59.999997,0 H 180 v 56 h -55.99805 z m 60,0 H 240 v 56 h -55.99805 z m 60,0 H 300 v 56 h -55.99805 z m 60,0 H 360 v 56 h -55.99805 z m 60,0 H 420 v 56 H 364.00195 Z M 424,484 h 56 v 56 h -56 z m 60,0 h 56 v 56 h -56 z m 60,0 h 56 v 56 h -56 z m 60,0 h 56 v 56 h -56 z m 60,0 h 56 v 56 h -56 z m 60,0 h 56 v 56 h -56 z m 60,0 h 56 v 56 h -56 z m 60,0 h 56 v 56 h -56 z m 60,0 h 56 v 56 h -56 z m 60,0 h 56 v 56 h -56 z m 60,0 h 56 v 56 h -56 z m 60,0 h 56 v 56 h -56 z m 60,0 h 56 v 56 h -56 z m 60,0 h 56 v 56 h -56 z m 60,0 h 56 v 56 h -56 z m 60,0 h 56 v 56 h -56 z m 60,0 h 56 v 56 h -56 z m 60,0 h 56 v 56 h -56 z m 60,0 h 56 v 56 h -56 z m 60,0 h 56 v 56 h -56 z m 60,0 h 56 v 56 h -56 z m 60,0 h 56 v 56 h -56 z m 60,0 h 56 v 56 h -56 z m 60,0 h 56 v 56 h -56 z m 60,0 h 56 v 56 h -56 z M 4.0019531,544 H 60 v 56 H 4.0019531 Z m 59.9999999,0 H 120 v 56 H 64.001953 Z m 59.999997,0 H 180 v 56 h -55.99805 z m 60,0 H 240 v 56 h -55.99805 z m 60,0 H 300 v 56 h -55.99805 z m 60,0 H 360 v 56 h -55.99805 z m 60,0 H 420 v 56 H 364.00195 Z M 424,544 h 56 v 56 h -56 z m 60,0 h 56 v 56 h -56 z m 60,0 h 56 v 56 h -56 z m 60,0 h 56 v 56 h -56 z m 60,0 h 56 v 56 h -56 z m 60,0 h 56 v 56 h -56 z m 60,0 h 56 v 56 h -56 z m 60,0 h 56 v 56 h -56 z m 60,0 h 56 v 56 h -56 z m 60,0 h 56 v 56 h -56 z m 60,0 h 56 v 56 h -56 z m 60,0 h 56 v 56 h -56 z m 60,0 h 56 v 56 h -56 z m 60,0 h 56 v 56 h -56 z m 60,0 h 56 v 56 h -56 z m 60,0 h 56 v 56 h -56 z m 60,0 h 56 v 56 h -56 z m 60,0 h 56 v 56 h -56 z m 60,0 h 56 v 56 h -56 z m 60,0 h 56 v 56 h -56 z m 60,0 h 56 v 56 h -56 z m 60,0 h 56 v 56 h -56 z m 60,0 h 56 v 56 h -56 z m 60,0 h 56 v 56 h -56 z m 60,0 h 56 v 56 h -56 z M 4.0019531,604 H 60 v 56 H 4.0019531 Z m 59.9999999,0 H 120 v 56 H 64.001953 Z m 59.999997,0 H 180 v 56 h -55.99805 z m 60,0 H 240 v 56 h -55.99805 z m 60,0 H 300 v 56 h -55.99805 z m 60,0 H 360 v 56 h -55.99805 z m 60,0 H 420 v 56 H 364.00195 Z M 424,604 h 56 v 56 h -56 z m 60,0 h 56 v 56 h -56 z m 60,0 h 56 v 56 h -56 z m 60,0 h 56 v 56 h -56 z m 60,0 h 56 v 56 h -56 z m 60,0 h 56 v 56 h -56 z m 60,0 h 56 v 56 h -56 z m 60,0 h 56 v 56 h -56 z m 60,0 h 56 v 56 h -56 z m 60,0 h 56 v 56 h -56 z m 60,0 h 56 v 56 h -56 z m 60,0 h 56 v 56 h -56 z m 60,0 h 56 v 56 h -56 z m 60,0 h 56 v 56 h -56 z m 60,0 h 56 v 56 h -56 z m 60,0 h 56 v 56 h -56 z m 60,0 h 56 v 56 h -56 z m 60,0 h 56 v 56 h -56 z m 60,0 h 56 v 56 h -56 z m 60,0 h 56 v 56 h -56 z m 60,0 h 56 v 56 h -56 z m 60,0 h 56 v 56 h -56 z m 60,0 h 56 v 56 h -56 z m 60,0 h 56 v 56 h -56 z m 60,0 h 56 v 56 h -56 z M 4.0019531,664 H 60 v 56 H 4.0019531 Z m 59.9999999,0 H 120 v 56 H 64.001953 Z m 59.999997,0 H 180 v 56 h -55.99805 z m 60,0 H 240 v 56 h -55.99805 z m 60,0 H 300 v 56 h -55.99805 z m 60,0 H 360 v 56 h -55.99805 z m 60,0 H 420 v 56 H 364.00195 Z M 424,664 h 56 v 56 h -56 z m 60,0 h 56 v 56 h -56 z m 60,0 h 56 v 56 h -56 z m 60,0 h 56 v 56 h -56 z m 60,0 h 56 v 56 h -56 z m 60,0 h 56 v 56 h -56 z m 60,0 h 56 v 56 h -56 z m 60,0 h 56 v 56 h -56 z m 60,0 h 56 v 56 h -56 z m 60,0 h 56 v 56 h -56 z m 60,0 h 56 v 56 h -56 z m 60,0 h 56 v 56 h -56 z m 60,0 h 56 v 56 h -56 z m 60,0 h 56 v 56 h -56 z m 60,0 h 56 v 56 h -56 z m 60,0 h 56 v 56 h -56 z m 60,0 h 56 v 56 h -56 z m 60,0 h 56 v 56 h -56 z m 60,0 h 56 v 56 h -56 z m 60,0 h 56 v 56 h -56 z m 60,0 h 56 v 56 h -56 z m 60,0 h 56 v 56 h -56 z m 60,0 h 56 v 56 h -56 z m 60,0 h 56 v 56 h -56 z m 60,0 h 56 v 56 h -56 z M 4.0019531,724 H 60 v 56 H 4.0019531 Z m 59.9999999,0 H 120 v 56 H 64.001953 Z m 59.999997,0 H 180 v 56 h -55.99805 z m 60,0 H 240 v 56 h -55.99805 z m 60,0 H 300 v 56 h -55.99805 z m 60,0 H 360 v 56 h -55.99805 z m 60,0 H 420 v 56 H 364.00195 Z M 424,724 h 56 v 56 h -56 z m 60,0 h 56 v 56 h -56 z m 60,0 h 56 v 56 h -56 z m 60,0 h 56 v 56 h -56 z m 60,0 h 56 v 56 h -56 z m 60,0 h 56 v 56 h -56 z m 60,0 h 56 v 56 h -56 z m 60,0 h 56 v 56 h -56 z m 60,0 h 56 v 56 h -56 z m 60,0 h 56 v 56 h -56 z m 60,0 h 56 v 56 h -56 z m 60,0 h 56 v 56 h -56 z m 60,0 h 56 v 56 h -56 z m 60,0 h 56 v 56 h -56 z m 60,0 h 56 v 56 h -56 z m 60,0 h 56 v 56 h -56 z m 60,0 h 56 v 56 h -56 z m 60,0 h 56 v 56 h -56 z m 60,0 h 56 v 56 h -56 z m 60,0 h 56 v 56 h -56 z m 60,0 h 56 v 56 h -56 z m 60,0 h 56 v 56 h -56 z m 60,0 h 56 v 56 h -56 z m 60,0 h 56 v 56 h -56 z m 60,0 h 56 v 56 h -56 z M 4.0019531,784 H 60 v 56 H 4.0019531 Z m 59.9999999,0 H 120 v 56 H 64.001953 Z m 59.999997,0 H 180 v 56 h -55.99805 z m 60,0 H 240 v 56 h -55.99805 z m 60,0 H 300 v 56 h -55.99805 z m 60,0 H 360 v 56 h -55.99805 z m 60,0 H 420 v 56 H 364.00195 Z M 424,784 h 56 v 56 h -56 z m 60,0 h 56 v 56 h -56 z m 60,0 h 56 v 56 h -56 z m 60,0 h 56 v 56 h -56 z m 60,0 h 56 v 56 h -56 z m 60,0 h 56 v 56 h -56 z m 60,0 h 56 v 56 h -56 z m 60,0 h 56 v 56 h -56 z m 60,0 h 56 v 56 h -56 z m 60,0 h 56 v 56 h -56 z m 60,0 h 56 v 56 h -56 z m 60,0 h 56 v 56 h -56 z m 60,0 h 56 v 56 h -56 z m 60,0 h 56 v 56 h -56 z m 60,0 h 56 v 56 h -56 z m 60,0 h 56 v 56 h -56 z m 60,0 h 56 v 56 h -56 z m 60,0 h 56 v 56 h -56 z m 60,0 h 56 v 56 h -56 z m 60,0 h 56 v 56 h -56 z m 60,0 h 56 v 56 h -56 z m 60,0 h 56 v 56 h -56 z m 60,0 h 56 v 56 h -56 z m 60,0 h 56 v 56 h -56 z m 60,0 h 56 v 56 h -56 z M 4.0019531,844 H 60 v 56 H 4.0019531 Z m 59.9999999,0 H 120 v 56 H 64.001953 Z m 59.999997,0 H 180 v 56 h -55.99805 z m 60,0 H 240 v 56 h -55.99805 z m 60,0 H 300 v 56 h -55.99805 z m 60,0 H 360 v 56 h -55.99805 z m 60,0 H 420 v 56 H 364.00195 Z M 424,844 h 56 v 56 h -56 z m 60,0 h 56 v 56 h -56 z m 60,0 h 56 v 56 h -56 z m 60,0 h 56 v 56 h -56 z m 60,0 h 56 v 56 h -56 z m 60,0 h 56 v 56 h -56 z m 60,0 h 56 v 56 h -56 z m 60,0 h 56 v 56 h -56 z m 60,0 h 56 v 56 h -56 z m 60,0 h 56 v 56 h -56 z m 60,0 h 56 v 56 h -56 z m 60,0 h 56 v 56 h -56 z m 60,0 h 56 v 56 h -56 z m 60,0 h 56 v 56 h -56 z m 60,0 h 56 v 56 h -56 z m 60,0 h 56 v 56 h -56 z m 60,0 h 56 v 56 h -56 z m 60,0 h 56 v 56 h -56 z m 60,0 h 56 v 56 h -56 z m 60,0 h 56 v 56 h -56 z m 60,0 h 56 v 56 h -56 z m 60,0 h 56 v 56 h -56 z m 60,0 h 56 v 56 h -56 z m 60,0 h 56 v 56 h -56 z m 60,0 h 56 v 56 h -56 z M 4.0019531,904 H 60 v 56 H 4.0019531 Z m 59.9999999,0 H 120 v 56 H 64.001953 Z m 59.999997,0 H 180 v 56 h -55.99805 z m 60,0 H 240 v 56 h -55.99805 z m 60,0 H 300 v 56 h -55.99805 z m 60,0 H 360 v 56 h -55.99805 z m 60,0 H 420 v 56 H 364.00195 Z M 424,904 h 56 v 56 h -56 z m 60,0 h 56 v 56 h -56 z m 60,0 h 56 v 56 h -56 z m 60,0 h 56 v 56 h -56 z m 60,0 h 56 v 56 h -56 z m 60,0 h 56 v 56 h -56 z m 60,0 h 56 v 56 h -56 z m 60,0 h 56 v 56 h -56 z m 60,0 h 56 v 56 h -56 z m 60,0 h 56 v 56 h -56 z m 60,0 h 56 v 56 h -56 z m 60,0 h 56 v 56 h -56 z m 60,0 h 56 v 56 h -56 z m 60,0 h 56 v 56 h -56 z m 60,0 h 56 v 56 h -56 z m 60,0 h 56 v 56 h -56 z m 60,0 h 56 v 56 h -56 z m 60,0 h 56 v 56 h -56 z m 60,0 h 56 v 56 h -56 z m 60,0 h 56 v 56 h -56 z m 60,0 h 56 v 56 h -56 z m 60,0 h 56 v 56 h -56 z m 60,0 h 56 v 56 h -56 z m 60,0 h 56 v 56 h -56 z m 60,0 h 56 v 56 h -56 z M 4.0019531,964 H 60 v 56 H 4.0019531 Z m 59.9999999,0 H 120 v 56 H 64.001953 Z m 59.999997,0 H 180 v 56 h -55.99805 z m 60,0 H 240 v 56 h -55.99805 z m 60,0 H 300 v 56 h -55.99805 z m 60,0 H 360 v 56 h -55.99805 z m 60,0 H 420 v 56 H 364.00195 Z M 424,964 h 56 v 56 h -56 z m 60,0 h 56 v 56 h -56 z m 60,0 h 56 v 56 h -56 z m 60,0 h 56 v 56 h -56 z m 60,0 h 56 v 56 h -56 z m 60,0 h 56 v 56 h -56 z m 60,0 h 56 v 56 h -56 z m 60,0 h 56 v 56 h -56 z m 60,0 h 56 v 56 h -56 z m 60,0 h 56 v 56 h -56 z m 60,0 h 56 v 56 h -56 z m 60,0 h 56 v 56 h -56 z m 60,0 h 56 v 56 h -56 z m 60,0 h 56 v 56 h -56 z m 60,0 h 56 v 56 h -56 z m 60,0 h 56 v 56 h -56 z m 60,0 h 56 v 56 h -56 z m 60,0 h 56 v 56 h -56 z m 60,0 h 56 v 56 h -56 z m 60,0 h 56 v 56 h -56 z m 60,0 h 56 v 56 h -56 z m 60,0 h 56 v 56 h -56 z m 60,0 h 56 v 56 h -56 z m 60,0 h 56 v 56 h -56 z m 60,0 h 56 v 56 h -56 z M 4.0019531,1024 H 60 v 56 H 4.0019531 Z m 59.9999999,0 H 120 v 56 H 64.001953 Z m 59.999997,0 H 180 v 56 h -55.99805 z m 60,0 H 240 v 56 h -55.99805 z m 60,0 H 300 v 56 h -55.99805 z m 60,0 H 360 v 56 h -55.99805 z m 60,0 H 420 v 56 H 364.00195 Z M 424,1024 h 56 v 56 h -56 z m 60,0 h 56 v 56 h -56 z m 60,0 h 56 v 56 h -56 z m 60,0 h 56 v 56 h -56 z m 60,0 h 56 v 56 h -56 z m 60,0 h 56 v 56 h -56 z m 60,0 h 56 v 56 h -56 z m 60,0 h 56 v 56 h -56 z m 60,0 h 56 v 56 h -56 z m 60,0 h 56 v 56 h -56 z m 60,0 h 56 v 56 h -56 z m 60,0 h 56 v 56 h -56 z m 60,0 h 56 v 56 h -56 z m 60,0 h 56 v 56 h -56 z m 60,0 h 56 v 56 h -56 z m 60,0 h 56 v 56 h -56 z m 60,0 h 56 v 56 h -56 z m 60,0 h 56 v 56 h -56 z m 60,0 h 56 v 56 h -56 z m 60,0 h 56 v 56 h -56 z m 60,0 h 56 v 56 h -56 z m 60,0 h 56 v 56 h -56 z m 60,0 h 56 v 56 h -56 z m 60,0 h 56 v 56 h -56 z m 60,0 h 56 v 56 h -56 z"
       transform="scale(0.26458334)" />
  </g>
</svg>
