<?xml version="1.0" encoding="UTF-8" standalone="no"?>
<svg
   xmlns:dc="http://purl.org/dc/elements/1.1/"
   xmlns:cc="http://creativecommons.org/ns#"
   xmlns:rdf="http://www.w3.org/1999/02/22-rdf-syntax-ns#"
   xmlns:svg="http://www.w3.org/2000/svg"
   xmlns="http://www.w3.org/2000/svg"
   xmlns:sodipodi="http://sodipodi.sourceforge.net/DTD/sodipodi-0.dtd"
   xmlns:inkscape="http://www.inkscape.org/namespaces/inkscape"
   width="128"
   height="128"
   viewBox="0 0 33.866666 33.866668"
   version="1.1"
   id="svg3184"
   inkscape:version="1.0.1 (3bc2e813f5, 2020-09-07)"
   sodipodi:docname="player-base.svg">
  <defs
     id="defs3178" />
  <sodipodi:namedview
     id="base"
     pagecolor="#ffffff"
     bordercolor="#666666"
     borderopacity="1.0"
     inkscape:pageopacity="0.0"
     inkscape:pageshadow="2"
     inkscape:zoom="2.4281185"
     inkscape:cx="41.576114"
     inkscape:cy="108.16146"
     inkscape:document-units="px"
     inkscape:current-layer="layer1"
     inkscape:document-rotation="0"
     showgrid="false"
     units="px"
     inkscape:window-width="1442"
     inkscape:window-height="1020"
     inkscape:window-x="50"
     inkscape:window-y="30"
     inkscape:window-maximized="0" />
  <metadata
     id="metadata3181">
    <rdf:RDF>
      <cc:Work
         rdf:about="">
        <dc:format>image/svg+xml</dc:format>
        <dc:type
           rdf:resource="http://purl.org/dc/dcmitype/StillImage" />
        <dc:title></dc:title>
      </cc:Work>
    </rdf:RDF>
  </metadata>
  <g
     inkscape:label="Layer 1"
     inkscape:groupmode="layer"
     id="layer1">
    <g
       id="g3901"
       transform="translate(-151.1681,-272.21008)">
      <circle
         style="fill:#4da6ff;fill-opacity:1;stroke:none;stroke-width:0.585372;stroke-linecap:round;stroke-miterlimit:4;stroke-dasharray:0.585372, 1.17074;stroke-dashoffset:0;stroke-opacity:1"
         id="path848"
         cx="156.42024"
         cy="278.38684"
         r="2.9933214" />
      <g
         id="g3786"
         transform="matrix(0.25579204,0,0,0.25579204,-170.33189,197.72987)">
        <path
           id="path828"
           style="fill:#c2c2d1;fill-opacity:1;stroke:#ffffff;stroke-width:2.24539;stroke-linecap:round;stroke-miterlimit:4;stroke-dasharray:none;stroke-dashoffset:0;stroke-opacity:1"
           d="m 1323.2189,346.43858 a 62.704888,62.704888 0 0 0 -62.7043,62.7058 62.704888,62.704888 0 0 0 0.3187,6.31809 h 124.7713 a 62.704888,62.704888 0 0 0 0.3187,-6.31809 62.704888,62.704888 0 0 0 -62.7044,-62.7058 z" />
        <circle
           style="fill:#7e7e8f;fill-opacity:1;stroke:none;stroke-width:2.28847;stroke-linecap:round;stroke-miterlimit:4;stroke-dasharray:2.28847, 4.57693;stroke-dashoffset:0;stroke-opacity:1"
           id="path846"
           cx="1293.163"
           cy="385.95694"
           r="16.717381" />
        <path
           style="fill:#7e7e8f;fill-opacity:1;stroke:none;stroke-width:2.28847;stroke-linecap:round;stroke-miterlimit:4;stroke-dasharray:2.28847, 4.57693;stroke-dashoffset:0;stroke-opacity:1"
           d="m 1259.0697,411.93037 a 64.054567,64.054567 0 0 0 0.3561,5.40802 h 127.3891 a 64.054567,64.054567 0 0 0 0.2753,-5.40802 z"
           id="rect850"
           inkscape:connector-curvature="0" />
      </g>
      <g
         id="g3779"
         transform="matrix(0.25579204,0,0,0.25579204,-171.42057,197.72987)">
        <path
           sodipodi:type="star"
           style="fill:#c2c2d1;fill-opacity:1;stroke:none;stroke-width:0.79375;stroke-linecap:round;stroke-miterlimit:4;stroke-dasharray:0.79375, 1.5875;stroke-dashoffset:0;stroke-opacity:1"
           id="path859"
           sodipodi:sides="6"
           sodipodi:cx="41.059402"
           sodipodi:cy="244.59995"
           sodipodi:r1="2.0052688"
           sodipodi:r2="1.920049"
           sodipodi:arg1="0.8208241"
           sodipodi:arg2="1.3444228"
           inkscape:flatsided="true"
           inkscape:rounded="0.11"
           inkscape:randomized="0"
           inkscape:transform-center-x="5.424713e-05"
           inkscape:transform-center-y="-0.0066145411"
           transform="matrix(-2.0240447,2.0531791,-2.0531791,-2.0240447,1913.1899,732.54773)"
           d="m 42.426231,246.06722 c -0.1614,0.15035 -1.7432,0.51467 -1.954108,0.45007 -0.210908,-0.0646 -1.31732,-1.25232 -1.366828,-1.46727 -0.04951,-0.21495 0.425879,-1.76699 0.587279,-1.91735 0.1614,-0.15035 1.7432,-0.51467 1.954108,-0.45007 0.210908,0.0646 1.31732,1.25232 1.366828,1.46727 0.04951,0.21495 -0.42588,1.76699 -0.587279,1.91735 z" />
        <path
           inkscape:connector-curvature="0"
           id="path866"
           d="m 1339.3648,306.40611 -23.0234,-0.24289 a 11.512382,11.512382 0 0 0 11.3906,11.63277 11.512382,11.512382 0 0 0 11.6328,-11.38988 z"
           style="fill:#c2c2d1;fill-opacity:1;stroke:none;stroke-width:2.28847;stroke-linecap:round;stroke-miterlimit:4;stroke-dasharray:2.28847, 4.57693;stroke-dashoffset:0;stroke-opacity:1" />
        <ellipse
           transform="rotate(0.60442385)"
           ry="1.6944215"
           rx="11.578547"
           cy="292.39227"
           cx="1331.0101"
           id="path870"
           style="fill:#7e7e8f;fill-opacity:1;stroke:none;stroke-width:2.28847;stroke-linecap:round;stroke-miterlimit:4;stroke-dasharray:2.28847, 4.57693;stroke-dashoffset:0;stroke-opacity:1" />
        <g
           style="fill:#c2c2d1;fill-opacity:1;stroke-width:2.05882"
           transform="matrix(1.400288,0.01477244,-0.01477244,1.400288,1335.613,-9.058101)"
           id="g878">
          <path
             sodipodi:type="star"
             style="opacity:1;fill:#c2c2d1;fill-opacity:1;stroke:none;stroke-width:3.37286;stroke-linecap:round;stroke-miterlimit:4;stroke-dasharray:3.37286, 6.74573;stroke-dashoffset:0;stroke-opacity:1"
             id="path872"
             sodipodi:sides="3"
             sodipodi:cx="-3.1655507"
             sodipodi:cy="224.05058"
             sodipodi:r1="5.1559901"
             sodipodi:r2="2.5779951"
             sodipodi:arg1="0.52359878"
             sodipodi:arg2="1.5707963"
             inkscape:flatsided="true"
             inkscape:rounded="0.11"
             inkscape:randomized="0"
             inkscape:transform-center-y="-0.96997064"
             transform="matrix(0.23475145,0,0,1,-2.4224331,0)"
             d="m 1.2996677,226.62858 c -0.49117402,0.85074 -8.4392628,0.85074 -8.9304368,0 -0.4911741,-0.85074 3.4828704,-7.73399 4.4652184,-7.73399 0.9823481,0 4.9563924,6.88325 4.4652184,7.73399 z" />
          <circle
             style="opacity:1;fill:#c2c2d1;fill-opacity:1;stroke:none;stroke-width:1.63419;stroke-linecap:round;stroke-miterlimit:4;stroke-dasharray:1.63419, 3.26838;stroke-dashoffset:0;stroke-opacity:1"
             id="path874"
             cx="-3.1655507"
             cy="220.07578"
             r="1.1811756" />
        </g>
      </g>
      <path
         inkscape:connector-curvature="0"
         id="path1631"
         d="m 180.29802,276.42799 c -0.33438,-0.009 -0.66931,10e-4 -0.74086,0.04 -0.14314,0.0773 -0.77057,1.09655 -0.77517,1.25916 -0.003,0.0871 0.15915,0.42484 0.33157,0.73743 -0.56152,0.86967 -1.01057,2.0143 -0.79155,2.42038 0.36968,0.68547 3.46451,0.63962 3.86741,-0.0156 0.23824,-0.38745 -0.21404,-1.53339 -0.78202,-2.40513 0.17319,-0.28207 0.32853,-0.57275 0.3308,-0.65321 0.005,-0.1626 -0.56422,-1.21579 -0.70276,-1.30108 -0.0693,-0.0426 -0.40306,-0.0725 -0.73742,-0.0819 z"
         style="fill:#c2c2d1;fill-opacity:1;stroke:none;stroke-width:0.585372;stroke-linecap:round;stroke-miterlimit:4;stroke-dasharray:none;stroke-dashoffset:0;stroke-opacity:1" />
    </g>
  </g>
</svg>
